<svg width="48" height="48" viewBox="0 0 48 48" fill="none" xmlns="http://www.w3.org/2000/svg">
<g clip-path="url(#clip0_13_960)">
<path fill-rule="evenodd" clip-rule="evenodd" d="M38.0766 23.1296C38.3022 23.3291 38.6724 23.1682 38.657 22.8682C38.2475 14.9742 31.9631 9.05707 23.8866 9.05707C15.7927 9.05707 9.73894 14.7907 9.35363 21.586C9.28222 22.8456 10.0924 23.5868 10.9867 24.3098C12.3505 25.4122 14.5743 27.2099 17.8354 26.9053C20.071 26.6964 21.6979 25.1657 23.4009 23.5634C25.2879 21.788 27.2683 19.9246 30.2738 19.6745C33.4776 19.408 36.7589 21.963 38.0766 23.1296ZM9.6962 24.8235C9.47077 24.6239 9.10058 24.7849 9.11617 25.0848C9.52567 32.9791 15.8099 38.8962 23.8866 38.8962C31.9806 38.8962 38.0342 33.1625 38.4194 26.3671C38.4925 25.0772 37.7012 24.3835 36.7866 23.6433L36.7863 23.6431C35.4224 22.5407 33.1987 20.7432 29.9376 21.0478C27.7021 21.2567 26.0752 22.7874 24.3723 24.3896C22.4853 26.1651 20.5048 28.0285 17.4993 28.2786C14.2956 28.5451 11.014 25.9901 9.6962 24.8235ZM27.1407 35.2072L27.3828 34.4038L27.6248 35.2072L28.1896 35.408L27.6248 35.6089L27.3828 36.4125L27.1407 35.6089L26.5759 35.408L27.1407 35.2072ZM22.004 34.7385L21.7619 35.5419L21.1972 35.7428L21.7619 35.9435L22.004 36.7472L22.246 35.9435L22.8108 35.7428L22.246 35.5419L22.004 34.7385ZM14.0299 30.8554L14.272 30.0519L14.514 30.8554L15.0788 31.0562L14.514 31.257L14.272 32.0605L14.0299 31.257L13.4652 31.0562L14.0299 30.8554ZM17.4993 32.3952L17.0958 33.7342L16.1546 34.069L17.0958 34.4038L17.4993 35.7428L17.9027 34.4038L18.844 34.069L17.9027 33.7342L17.4993 32.3952ZM31.5513 32.3952L31.9547 31.0562L32.3581 32.3952L33.2994 32.73L32.3581 33.0647L31.9547 34.4038L31.5513 33.0647L30.61 32.73L31.5513 32.3952ZM30.2738 28.7129L30.173 29.1146L29.9376 29.2151L30.173 29.3155L30.2738 29.7172L30.3747 29.3155L30.61 29.2151L30.3747 29.1146L30.2738 28.7129ZM27.7189 31.1566L27.9206 30.7214L28.1223 31.1566L28.5929 31.391L28.1223 31.6253L27.9206 32.0605L27.7189 31.6253L27.2483 31.391L27.7189 31.1566ZM34.6441 29.0477L34.4424 29.4829L33.9717 29.7172L34.4424 29.9515L34.6441 30.3867L34.8458 29.9515L35.3164 29.7172L34.8458 29.4829L34.6441 29.0477ZM19.6508 31.1566L19.8525 30.7214L20.0542 31.1566L20.5248 31.391L20.0542 31.6253L19.8525 32.0605L19.6508 31.6253L19.1801 31.391L19.6508 31.1566ZM24.0546 32.3952L23.9034 32.7216L23.5504 32.8974L23.9034 33.0731L24.0546 33.3995L24.2059 33.0731L24.5589 32.8974L24.2059 32.7216L24.0546 32.3952Z" fill="url(#paint0_linear_13_960)"/>
<path d="M35.3843 5.39831C34.4035 6.81954 32.679 6.86548 31.5489 5.92341C27.898 2.87975 24.328 1.62944 18.6386 2.83562C15.5149 3.49785 12.711 4.71607 11.7296 5.16929C11.5104 5.2705 11.2496 5.21388 11.0959 5.02858C10.9216 4.8184 10.945 4.51434 11.1647 4.35152C11.9686 3.75585 14.114 2.37831 18.1931 1.09532C24.1435 -0.776245 30.4398 -0.0738229 34.2043 1.87851C35.7081 2.65839 36.0533 4.41968 35.3843 5.39831Z" fill="url(#paint1_linear_13_960)"/>
<path d="M44.8087 29.4666C43.1452 28.979 42.5683 27.3637 43.1209 26.0048C44.9062 21.6145 44.9999 17.8549 42.0871 12.8516C40.488 10.1047 38.4554 7.83166 37.7182 7.04438C37.5536 6.86858 37.5272 6.60463 37.6571 6.40215C37.8045 6.17249 38.1027 6.10063 38.3265 6.25795C39.1451 6.83349 41.1267 8.43502 43.6154 11.8929C47.2457 16.9371 48.519 23.1036 47.8134 27.2639C47.5316 28.9259 45.9522 29.7963 44.8087 29.4666Z" fill="url(#paint2_linear_13_960)"/>
<path d="M27.4739 43.1448C26.0023 43.0426 24.6343 44.0868 24.6817 45.8094C24.7194 46.9918 26.0407 48.2151 27.7187 47.9679C31.9192 47.3489 37.4286 44.2403 41.1353 39.2512C43.6763 35.8312 44.597 33.4638 44.895 32.5124C44.9765 32.2524 44.8155 31.9927 44.5501 31.9245C44.3162 31.8643 44.0717 31.9709 43.9542 32.1807C43.4284 33.1205 41.8807 35.7435 39.7453 38.1034C35.8561 42.4018 32.2282 43.4751 27.4739 43.1448Z" fill="url(#paint3_linear_13_960)"/>
<path d="M2.81801 31.8414C4.4523 31.2643 5.87466 32.2343 6.23153 33.6563C7.38455 38.2508 9.533 41.3471 14.8494 43.6938C17.7683 44.9822 20.7575 45.6341 21.8196 45.8406C22.0568 45.8867 22.2343 46.0848 22.249 46.3245C22.2657 46.5963 22.0669 46.8286 21.7928 46.832C20.79 46.8445 18.2393 46.7061 14.1803 45.3619C8.25904 43.4011 3.58079 39.1559 1.69031 35.3781C0.935103 33.8689 1.69784 32.2424 2.81801 31.8414Z" fill="url(#paint4_linear_13_960)"/>
<path d="M8.75 10.6523C10.001 9.87562 10.4899 8.2319 9.43255 6.86597C8.70247 5.93145 6.90982 5.71335 5.69857 6.8933C2.66643 9.84704 0.0483741 15.5794 0.00115573 21.7803C-0.031213 26.0311 0.624468 28.484 0.946253 29.4277C1.03421 29.6856 1.31804 29.8017 1.57311 29.7019C1.79797 29.614 1.93277 29.385 1.90361 29.1467C1.77304 28.0793 1.47336 25.0533 1.80471 21.8971C2.40823 16.1484 4.70826 13.1615 8.75 10.6523Z" fill="url(#paint5_linear_13_960)"/>
</g>
<defs>
<linearGradient id="paint0_linear_13_960" x1="23.8865" y1="7.09513" x2="23.9985" y2="48" gradientUnits="userSpaceOnUse">
<stop stop-color="#5E11E8"/>
<stop offset="1" stop-color="#BE9CFB"/>
</linearGradient>
<linearGradient id="paint1_linear_13_960" x1="23.8865" y1="7.09513" x2="23.9985" y2="48" gradientUnits="userSpaceOnUse">
<stop stop-color="#5E11E8"/>
<stop offset="1" stop-color="#BE9CFB"/>
</linearGradient>
<linearGradient id="paint2_linear_13_960" x1="23.8865" y1="7.09513" x2="23.9985" y2="48" gradientUnits="userSpaceOnUse">
<stop stop-color="#5E11E8"/>
<stop offset="1" stop-color="#BE9CFB"/>
</linearGradient>
<linearGradient id="paint3_linear_13_960" x1="23.8865" y1="7.09513" x2="23.9985" y2="48" gradientUnits="userSpaceOnUse">
<stop stop-color="#5E11E8"/>
<stop offset="1" stop-color="#BE9CFB"/>
</linearGradient>
<linearGradient id="paint4_linear_13_960" x1="23.8865" y1="7.09513" x2="23.9985" y2="48" gradientUnits="userSpaceOnUse">
<stop stop-color="#5E11E8"/>
<stop offset="1" stop-color="#BE9CFB"/>
</linearGradient>
<linearGradient id="paint5_linear_13_960" x1="23.8865" y1="7.09513" x2="23.9985" y2="48" gradientUnits="userSpaceOnUse">
<stop stop-color="#5E11E8"/>
<stop offset="1" stop-color="#BE9CFB"/>
</linearGradient>
<clipPath id="clip0_13_960">
<rect width="48" height="48" fill="white"/>
</clipPath>
</defs>
</svg>
