<?xml version="1.0" encoding="UTF-8" standalone="no"?>
<svg
   width="900"
   height="600"
   viewBox="-72 -48 144 96"
   version="1.1"
   id="svg5"
   sodipodi:docname="fedidevkr.svg"
   inkscape:version="1.3.2 (091e20ef0f, 2023-11-25)"
   xmlns:inkscape="http://www.inkscape.org/namespaces/inkscape"
   xmlns:sodipodi="http://sodipodi.sourceforge.net/DTD/sodipodi-0.dtd"
   xmlns="http://www.w3.org/2000/svg"
   xmlns:svg="http://www.w3.org/2000/svg">
  <defs
     id="defs5" />
  <sodipodi:namedview
     id="namedview5"
     pagecolor="#ffffff"
     bordercolor="#000000"
     borderopacity="0.25"
     inkscape:showpageshadow="2"
     inkscape:pageopacity="0.0"
     inkscape:pagecheckerboard="0"
     inkscape:deskcolor="#d1d1d1"
     inkscape:zoom="1.9416667"
     inkscape:cx="450.12876"
     inkscape:cy="300"
     inkscape:window-width="3440"
     inkscape:window-height="1371"
     inkscape:window-x="0"
     inkscape:window-y="0"
     inkscape:window-maximized="1"
     inkscape:current-layer="svg5" />
  <g
     stroke="#000"
     stroke-width="4"
     id="g3">
    <path
       transform="rotate(-56.30993247402022)"
       d="M12-50h-24m24 6h-24m24 6h-24m11 76h-11m24 0H1m-2 6h-11m24 0H1m-2 6h-11m24 0H1"
       id="path2" />
    <path
       transform="rotate(-123.6900675259798)"
       d="M-12-50h24m-24 6h11m2 0h11m-24 6h24m-24 76h11m2 0h11m-24 6h24m-24 6h11m2 0h11"
       id="path3" />
  </g>
  <g
     id="g15"
     transform="matrix(0.32132642,0,0,0.32132642,-32.049667,-31.33084)">
    <path
       fill="#a730b8"
       d="m 47.9242,72.7966 a 18.2278,18.2278 0 0 1 -7.7959,7.7597 l 42.7984,42.9653 10.3182,-5.2291 z m 56.4524,56.6704 -10.3182,5.2291 21.686,21.7708 a 18.2278,18.2278 0 0 1 7.7975,-7.7608 z"
       id="path1-6" />
    <path
       fill="#5496be"
       d="m 129.6645,102.0765 1.7865,11.4272 27.4149,-13.8942 a 18.2278,18.2278 0 0 1 -4.9719,-9.8124 z m -14.0658,7.1282 -57.2891,29.0339 a 18.2278,18.2278 0 0 1 4.9728,9.8133 l 54.1027,-27.4194 z"
       id="path2-7" />
    <path
       fill="#ce3d1a"
       d="m 69.5312,91.6539 8.1618,8.1933 29.269,-57.1387 a 18.2278,18.2278 0 0 1 -9.787,-5.0219 z m -7.1897,14.0363 -14.0022,27.3353 a 18.2278,18.2278 0 0 1 9.786,5.0214 L 70.5028,113.883 Z"
       id="path3-5" />
    <path
       fill="#d0188f"
       d="m 39.8906,80.6763 a 18.2278,18.2278 0 0 1 -10.8655,1.7198 l 8.1762,52.2981 a 18.2278,18.2278 0 0 1 10.8645,-1.7198 z"
       id="path4-3" />
    <path
       fill="#5b36e9"
       d="m 63.3259,148.3109 a 18.2278,18.2278 0 0 1 -1.7322,10.8629 l 52.2893,8.3907 a 18.2278,18.2278 0 0 1 1.7322,-10.8629 z"
       id="path5-5" />
    <path
       fill="#30b873"
       d="m 134.9148,146.9182 a 18.2278,18.2278 0 0 1 9.788,5.0224 l 24.1345,-47.117 a 18.2278,18.2278 0 0 1 -9.7875,-5.0229 z"
       id="path6" />
    <path
       fill="#ebe305"
       d="m 126.1329,33.1603 a 18.2278,18.2278 0 0 1 -7.7975,7.7608 l 37.3765,37.5207 a 18.2278,18.2278 0 0 1 7.7969,-7.7608 z"
       id="path7" />
    <path
       fill="#f47601"
       d="m 44.7704,51.6279 a 18.2278,18.2278 0 0 1 4.9723,9.8123 L 96.9905,37.4949 a 18.2278,18.2278 0 0 1 -4.9718,-9.8113 z"
       id="path8" />
    <path
       fill="#57c115"
       d="m 118.2491,40.9645 a 18.2278,18.2278 0 0 1 -10.8511,1.8123 l 4.1853,26.8 11.42,1.8324 z m -4.2333,44.1927 9.8955,63.3631 a 18.2278,18.2278 0 0 1 10.88,-1.6278 l -9.355,-59.9035 z"
       id="path9" />
    <path
       fill="#dbb210"
       d="m 49.7763,61.6412 a 18.2278,18.2278 0 0 1 -1.694,10.8686 l 26.8206,4.3077 5.2715,-10.2945 z m 45.9677,7.382 -5.272,10.2955 63.3713,10.1777 a 18.2278,18.2278 0 0 1 1.7606,-10.8593 z"
       id="path10" />
    <path
       fill="#ffca00"
       d="m 93.4385,23.8419 a 16.570727,16.570727 0 1 0 33.0924,1.8025 16.570727,16.570727 0 1 0 -33.0924,-1.8025"
       id="path11" />
    <path
       fill="#64ff00"
       d="M 155.314,85.957 A 16.570677,16.570677 0 1 0 188.4063,87.7595 16.570677,16.570677 0 1 0 155.314,85.957"
       id="path12" />
    <path
       fill="#00a3ff"
       d="m 115.3466,163.9824 a 16.570677,16.570677 0 1 0 33.0923,1.8025 16.570677,16.570677 0 1 0 -33.0923,-1.8025"
       id="path13" />
    <path
       fill="#9500ff"
       d="m 28.7698,150.0898 a 16.570677,16.570677 0 1 0 33.0923,1.8025 16.570677,16.570677 0 1 0 -33.0923,-1.8025"
       id="path14" />
    <path
       fill="#ff0000"
       d="M 15.2298,63.4781 A 16.570677,16.570677 0 1 0 48.3221,65.2806 16.570677,16.570677 0 1 0 15.2298,63.4781"
       id="path15" />
  </g>
</svg>
